# xmcd
#
# Track frame offsets:
#	150
#	20680
#	37731
#	54589
#	72621
#	91211
#	108089
#	125643
#	142961
#	163149
#	182919
#
# Disc length: 2705 seconds
#
# Revision: 1
# Processed by: cddbd v1.5.2PL0 Copyright (c) Steve Scherf et al.
# Submitted via: EasyCDDAExtractor 15.3.0.1
#
DISCID=960a8f0b
DTITLE=Ricardo Montaner - Prohibido Olvidar
DYEAR=2003
DGENRE=Latin
TTITLE0=Atame
TTITLE1=Que Ganas
TTITLE2=Desesperanza
TTITLE3=Parado De Manos
TTITLE4=De Vez En Cuando La Muchacha
TTITLE5=No Me Puedo Aguantar
TTITLE6=Republica De La Alegria
TTITLE7=En Que Queda
TTITLE8=El Llanto De La Luna
TTITLE9=Prohibido Olvidar
TTITLE10=No Me Puedo Aguantar (Version Dance)
EXTD=
EXTT0=
EXTT1=
EXTT2=
EXTT3=
EXTT4=
EXTT5=
EXTT6=
EXTT7=
EXTT8=
EXTT9=
EXTT10=
PLAYORDER=
